<svg width="100%" height="100%" viewBox="0 0 48 48" version="1.1" xmlns="http://www.w3.org/2000/svg" xmlns:xlink="http://www.w3.org/1999/xlink" xml:space="preserve" xmlns:serif="http://www.serif.com/" style="fill-rule:evenodd;clip-rule:evenodd;stroke-linejoin:round;stroke-miterlimit:2;">
    <g transform="matrix(1.62453,0,0,1.62453,-14.9886,-15.3009)">
        <path fill="#fff" d="M22.65,34L25.65,34L25.65,22L22.65,22L22.65,34ZM23.999,18.3C24.466,18.3 24.858,18.147 25.175,17.84C25.492,17.533 25.65,17.153 25.65,16.7C25.65,16.218 25.492,15.815 25.176,15.489C24.86,15.163 24.468,15 24.001,15C23.534,15 23.142,15.163 22.825,15.489C22.508,15.815 22.35,16.218 22.35,16.7C22.35,17.153 22.508,17.533 22.824,17.84C23.14,18.147 23.532,18.3 23.999,18.3Z" style="fill-rule:nonzero;"/>
    </g>
</svg>
